<mxfile host="app.diagrams.net" modified="2024-07-19T04:36:53.555Z" agent="Mozilla/5.0 (Windows NT 10.0; Win64; x64) AppleWebKit/537.36 (KHTML, like Gecko) Chrome/126.0.0.0 Safari/537.36" etag="F2uEnvPydLTCd3_ON2l3" version="24.7.1" type="browser">
  <diagram name="Page-1" id="zGXteViX2Xw6E_YGSlFG">
    <mxGraphModel dx="794" dy="446" grid="1" gridSize="10" guides="1" tooltips="1" connect="1" arrows="1" fold="1" page="1" pageScale="1" pageWidth="850" pageHeight="1100" math="0" shadow="0">
      <root>
        <mxCell id="0" />
        <mxCell id="1" parent="0" />
        <mxCell id="FFxRBa4EelgISY9s4wPq-6" value="" style="rounded=0;whiteSpace=wrap;html=1;fillColor=none;" parent="1" vertex="1">
          <mxGeometry x="80" y="40" width="560" height="400" as="geometry" />
        </mxCell>
        <mxCell id="FFxRBa4EelgISY9s4wPq-7" value="" style="rounded=0;whiteSpace=wrap;html=1;fillColor=none;" parent="1" vertex="1">
          <mxGeometry x="120" y="120" width="480" height="280" as="geometry" />
        </mxCell>
        <mxCell id="FFxRBa4EelgISY9s4wPq-9" value="" style="line;strokeWidth=4;html=1;perimeter=backbonePerimeter;points=[];outlineConnect=0;strokeColor=#084878;fontColor=#21C4FF;" parent="1" vertex="1">
          <mxGeometry x="120.63" y="210.08" width="479.37" height="10" as="geometry" />
        </mxCell>
        <mxCell id="FFxRBa4EelgISY9s4wPq-1" value="" style="image;sketch=0;aspect=fixed;html=1;points=[];align=center;fontSize=12;image=img/lib/mscae/ResourceGroup.svg;" parent="1" vertex="1">
          <mxGeometry x="90" y="46" width="42.5" height="34" as="geometry" />
        </mxCell>
        <mxCell id="FFxRBa4EelgISY9s4wPq-2" value="" style="image;sketch=0;aspect=fixed;html=1;points=[];align=center;fontSize=12;image=img/lib/mscae/Virtual_WANs.svg;" parent="1" vertex="1">
          <mxGeometry x="132.5" y="130" width="40" height="40" as="geometry" />
        </mxCell>
        <mxCell id="FFxRBa4EelgISY9s4wPq-10" value="Microsoft Global Bakcbone" style="text;strokeColor=none;align=center;fillColor=none;html=1;verticalAlign=middle;whiteSpace=wrap;rounded=0;fontSize=8;" parent="1" vertex="1">
          <mxGeometry x="120.63" y="220.08" width="69.37" height="19.92" as="geometry" />
        </mxCell>
        <mxCell id="FFxRBa4EelgISY9s4wPq-11" value="vHub East US" style="text;strokeColor=none;align=center;fillColor=none;html=1;verticalAlign=middle;whiteSpace=wrap;rounded=0;" parent="1" vertex="1">
          <mxGeometry x="230.63" y="160" width="50" height="19.84" as="geometry" />
        </mxCell>
        <mxCell id="FFxRBa4EelgISY9s4wPq-12" value="vHub&amp;nbsp;&lt;div&gt;West US&lt;/div&gt;" style="text;strokeColor=none;align=center;fillColor=none;html=1;verticalAlign=middle;whiteSpace=wrap;rounded=0;" parent="1" vertex="1">
          <mxGeometry x="400.32" y="160" width="100" height="19.84" as="geometry" />
        </mxCell>
        <mxCell id="FFxRBa4EelgISY9s4wPq-14" value="vnet01&lt;div&gt;East US&lt;/div&gt;" style="text;strokeColor=none;align=center;fillColor=none;html=1;verticalAlign=middle;whiteSpace=wrap;rounded=0;" parent="1" vertex="1">
          <mxGeometry x="183.88" y="360" width="60" height="30" as="geometry" />
        </mxCell>
        <mxCell id="FFxRBa4EelgISY9s4wPq-15" value="" style="image;aspect=fixed;html=1;points=[];align=center;fontSize=12;image=img/lib/azure2/networking/Virtual_Networks.svg;" parent="1" vertex="1">
          <mxGeometry x="273.25" y="330" width="33.5" height="20" as="geometry" />
        </mxCell>
        <mxCell id="FFxRBa4EelgISY9s4wPq-16" value="vnet02&lt;div&gt;East US&lt;/div&gt;" style="text;strokeColor=none;align=center;fillColor=none;html=1;verticalAlign=middle;whiteSpace=wrap;rounded=0;" parent="1" vertex="1">
          <mxGeometry x="260" y="360" width="60" height="30" as="geometry" />
        </mxCell>
        <mxCell id="FFxRBa4EelgISY9s4wPq-18" value="vnet01&lt;div&gt;West US&lt;/div&gt;" style="text;strokeColor=none;align=center;fillColor=none;html=1;verticalAlign=middle;whiteSpace=wrap;rounded=0;" parent="1" vertex="1">
          <mxGeometry x="382.26" y="360" width="60" height="30" as="geometry" />
        </mxCell>
        <mxCell id="FFxRBa4EelgISY9s4wPq-20" value="vnet02&lt;div&gt;West US&lt;/div&gt;" style="text;strokeColor=none;align=center;fillColor=none;html=1;verticalAlign=middle;whiteSpace=wrap;rounded=0;" parent="1" vertex="1">
          <mxGeometry x="458.38" y="360" width="60" height="30" as="geometry" />
        </mxCell>
        <mxCell id="FFxRBa4EelgISY9s4wPq-21" value="" style="endArrow=none;dashed=1;html=1;rounded=0;" parent="1" edge="1">
          <mxGeometry width="50" height="50" relative="1" as="geometry">
            <mxPoint x="214" y="340" as="sourcePoint" />
            <mxPoint x="250" y="220.08" as="targetPoint" />
          </mxGeometry>
        </mxCell>
        <mxCell id="FFxRBa4EelgISY9s4wPq-13" value="" style="image;aspect=fixed;html=1;points=[];align=center;fontSize=12;image=img/lib/azure2/networking/Virtual_Networks.svg;" parent="1" vertex="1">
          <mxGeometry x="197.13" y="330" width="33.5" height="20" as="geometry" />
        </mxCell>
        <mxCell id="FFxRBa4EelgISY9s4wPq-3" value="" style="image;aspect=fixed;html=1;points=[];align=center;fontSize=12;image=img/lib/azure2/networking/Virtual_WAN_Hub.svg;" parent="1" vertex="1">
          <mxGeometry x="230" y="190.16" width="50.63" height="49.84" as="geometry" />
        </mxCell>
        <mxCell id="FFxRBa4EelgISY9s4wPq-22" value="" style="endArrow=none;dashed=1;html=1;rounded=0;" parent="1" source="FFxRBa4EelgISY9s4wPq-15" edge="1">
          <mxGeometry width="50" height="50" relative="1" as="geometry">
            <mxPoint x="224" y="350" as="sourcePoint" />
            <mxPoint x="260" y="230.08" as="targetPoint" />
          </mxGeometry>
        </mxCell>
        <mxCell id="FFxRBa4EelgISY9s4wPq-23" value="" style="endArrow=none;dashed=1;html=1;rounded=0;" parent="1" edge="1">
          <mxGeometry width="50" height="50" relative="1" as="geometry">
            <mxPoint x="410" y="340" as="sourcePoint" />
            <mxPoint x="446" y="220.08" as="targetPoint" />
          </mxGeometry>
        </mxCell>
        <mxCell id="FFxRBa4EelgISY9s4wPq-17" value="" style="image;aspect=fixed;html=1;points=[];align=center;fontSize=12;image=img/lib/azure2/networking/Virtual_Networks.svg;" parent="1" vertex="1">
          <mxGeometry x="395.51" y="330" width="33.5" height="20" as="geometry" />
        </mxCell>
        <mxCell id="FFxRBa4EelgISY9s4wPq-24" value="" style="endArrow=none;dashed=1;html=1;rounded=0;" parent="1" source="FFxRBa4EelgISY9s4wPq-19" edge="1">
          <mxGeometry width="50" height="50" relative="1" as="geometry">
            <mxPoint x="422.38" y="340" as="sourcePoint" />
            <mxPoint x="458.38" y="220.08" as="targetPoint" />
          </mxGeometry>
        </mxCell>
        <mxCell id="FFxRBa4EelgISY9s4wPq-8" value="" style="image;aspect=fixed;html=1;points=[];align=center;fontSize=12;image=img/lib/azure2/networking/Virtual_WAN_Hub.svg;" parent="1" vertex="1">
          <mxGeometry x="425" y="190.16" width="50.63" height="49.84" as="geometry" />
        </mxCell>
        <mxCell id="FFxRBa4EelgISY9s4wPq-19" value="" style="image;aspect=fixed;html=1;points=[];align=center;fontSize=12;image=img/lib/azure2/networking/Virtual_Networks.svg;" parent="1" vertex="1">
          <mxGeometry x="471.63" y="330" width="33.5" height="20" as="geometry" />
        </mxCell>
        <mxCell id="FFxRBa4EelgISY9s4wPq-26" value="Peering Connections" style="text;align=center;html=1;verticalAlign=middle;whiteSpace=wrap;rounded=1;fontSize=10;fillColor=#f9f7ed;strokeColor=none;fillOpacity=80;" parent="1" vertex="1">
          <mxGeometry x="390" y="280" width="120.63" height="20" as="geometry" />
        </mxCell>
        <mxCell id="FFxRBa4EelgISY9s4wPq-27" value="Peering Connections" style="text;align=center;html=1;verticalAlign=middle;whiteSpace=wrap;rounded=1;fontSize=10;fillColor=#f9f7ed;strokeColor=none;fillOpacity=80;" parent="1" vertex="1">
          <mxGeometry x="190" y="280" width="120.63" height="20" as="geometry" />
        </mxCell>
      </root>
    </mxGraphModel>
  </diagram>
</mxfile>
